<svg xmlns="http://www.w3.org/2000/svg" width="512" height="512" viewBox="0 0 512 512" role="img" aria-label="Brain">
  <metadata>SpaceBio-Bench original biological symbol asset v0.1; asset_id=brain_outline; category=organ; license=repository MIT license.</metadata>
  <rect width="512" height="512" fill="none"/>
  <path d="M154 285 C100 242, 128 153, 204 154 C233 98, 329 105, 348 168 C418 181, 426 273, 369 312 C353 379, 251 395, 216 339 C187 340, 165 319, 154 285 Z" fill="#FBFAF6" stroke="#6D3EDB" stroke-width="13" stroke-linecap="round" stroke-linejoin="round"/>
  <path d="M211 174 C188 220, 213 253, 260 249 M285 143 C257 193, 290 229, 342 224 M194 307 C249 290, 302 300, 348 333" fill="none" stroke="#286EA6" stroke-width="8" opacity="0.62" stroke-linecap="round" stroke-linejoin="round"/>
</svg>
