<svg xmlns="http://www.w3.org/2000/svg" width="1420" height="410" viewBox="0 0 1420 410" role="img">
  <metadata>{&quot;asset_id&quot;: &quot;sample_to_feature_stack&quot;, &quot;kind&quot;: &quot;biovis_module_v0_3&quot;}</metadata>
  
  <rect width="1420" height="410" fill="none"/>
  <text x="28" y="42" font-family="Arial, Helvetica, sans-serif" font-size="24" font-weight="700" fill="#17212B" letter-spacing="0">Sample to feature stack</text>
  <text x="28" y="70" font-family="Arial, Helvetica, sans-serif" font-size="13" fill="#5D6978" letter-spacing="0">Reusable methods module for explaining how source material becomes model-ready features.</text>
  <path d="M28 86 H1392" stroke="#AEB8C5" stroke-width="1.3" opacity="0.45"/>
  <rect x="48" y="116" width="140" height="138" rx="20" fill="#FBFAF7" stroke="#AEB8C5" stroke-width="1.2" opacity="0.82"/>
  <g transform="translate(68.00 130.00) scale(0.3906)">
<path d="M93 57 H163 M105 57 V165 C105 194, 151 194, 151 165 V57" fill="#FBFAF7" stroke="#2D6F9F" stroke-width="8" stroke-linecap="round" stroke-linejoin="round" vector-effect="non-scaling-stroke"/>
<path d="M107 144 C122 136, 137 155, 149 145 V169 C149 188, 107 188, 107 169 Z" fill="#1AA090" opacity="0.66"/>
<path d="M113 86 H143 M113 109 H143" stroke="#AEB8C5" stroke-width="4" opacity="0.60" stroke-linecap="round" stroke-linejoin="round" vector-effect="non-scaling-stroke"/>
</g>
  <text x="118" y="292" font-family="Arial, Helvetica, sans-serif" font-size="15" font-weight="700" fill="#17212B" text-anchor="middle" letter-spacing="0">Sample</text>
  <text x="118" y="315" font-family="Arial, Helvetica, sans-serif" font-size="11.5" fill="#5D6978" text-anchor="middle" letter-spacing="0">source material</text>
  <path d="M206 184 H304" stroke="#AEB8C5" stroke-width="2.5" opacity="0.72" stroke-linecap="round" stroke-linejoin="round" vector-effect="non-scaling-stroke"/><path d="M295 177 L304 184 L295 191" fill="none" stroke="#AEB8C5" stroke-width="2.5" opacity="0.72" stroke-linecap="round" stroke-linejoin="round" vector-effect="non-scaling-stroke"/>
  <rect x="324" y="116" width="140" height="138" rx="20" fill="#FBFAF7" stroke="#AEB8C5" stroke-width="1.2" opacity="0.82"/>
  <g transform="translate(344.00 130.00) scale(0.3906)">
<rect x="61" y="73" width="134" height="111" rx="12" fill="#FBFAF7" stroke="#1AA090" stroke-width="8"/>
<path d="M84 135 C104 90, 130 160, 154 112 C169 81, 184 86, 194 106" fill="none" stroke="#2D6F9F" stroke-width="7" stroke-linecap="round" stroke-linejoin="round" vector-effect="non-scaling-stroke"/>
<path d="M82 161 H176" stroke="#AEB8C5" stroke-width="5" opacity="0.48" stroke-linecap="round" stroke-linejoin="round" vector-effect="non-scaling-stroke"/>
</g>
  <text x="394" y="292" font-family="Arial, Helvetica, sans-serif" font-size="15" font-weight="700" fill="#17212B" text-anchor="middle" letter-spacing="0">Assay</text>
  <text x="394" y="315" font-family="Arial, Helvetica, sans-serif" font-size="11.5" fill="#5D6978" text-anchor="middle" letter-spacing="0">RNA readout</text>
  <path d="M482 184 H580" stroke="#AEB8C5" stroke-width="2.5" opacity="0.72" stroke-linecap="round" stroke-linejoin="round" vector-effect="non-scaling-stroke"/><path d="M571 177 L580 184 L571 191" fill="none" stroke="#AEB8C5" stroke-width="2.5" opacity="0.72" stroke-linecap="round" stroke-linejoin="round" vector-effect="non-scaling-stroke"/>
  <rect x="600" y="116" width="140" height="138" rx="20" fill="#FBFAF7" stroke="#AEB8C5" stroke-width="1.2" opacity="0.82"/>
  <g transform="translate(620.00 130.00) scale(0.3906)">
<rect x="59" y="65" width="138" height="126" fill="#FBFAF7" stroke="#2D6F9F" stroke-width="8"/>
<path d="M87 65 V191" stroke="#AEB8C5" stroke-width="3" opacity="0.46"/>
<path d="M115 65 V191" stroke="#AEB8C5" stroke-width="3" opacity="0.46"/>
<path d="M143 65 V191" stroke="#AEB8C5" stroke-width="3" opacity="0.46"/>
<path d="M171 65 V191" stroke="#AEB8C5" stroke-width="3" opacity="0.46"/>
<path d="M59 96 H197" stroke="#AEB8C5" stroke-width="3" opacity="0.46"/>
<path d="M59 127 H197" stroke="#AEB8C5" stroke-width="3" opacity="0.46"/>
<path d="M59 158 H197" stroke="#AEB8C5" stroke-width="3" opacity="0.46"/>
<rect x="79" y="88" width="16" height="16" rx="3" fill="#B4832F" opacity="0.72"/>
<rect x="135" y="119" width="16" height="16" rx="3" fill="#B4832F" opacity="0.72"/>
<rect x="163" y="150" width="16" height="16" rx="3" fill="#B4832F" opacity="0.72"/>
<rect x="107" y="150" width="16" height="16" rx="3" fill="#B4832F" opacity="0.72"/>
<rect x="163" y="88" width="16" height="16" rx="3" fill="#B4832F" opacity="0.72"/>
</g>
  <text x="670" y="292" font-family="Arial, Helvetica, sans-serif" font-size="15" font-weight="700" fill="#17212B" text-anchor="middle" letter-spacing="0">Matrix</text>
  <text x="670" y="315" font-family="Arial, Helvetica, sans-serif" font-size="11.5" fill="#5D6978" text-anchor="middle" letter-spacing="0">feature table</text>
  <path d="M758 184 H856" stroke="#AEB8C5" stroke-width="2.5" opacity="0.72" stroke-linecap="round" stroke-linejoin="round" vector-effect="non-scaling-stroke"/><path d="M847 177 L856 184 L847 191" fill="none" stroke="#AEB8C5" stroke-width="2.5" opacity="0.72" stroke-linecap="round" stroke-linejoin="round" vector-effect="non-scaling-stroke"/>
  <rect x="876" y="116" width="140" height="138" rx="20" fill="#FBFAF7" stroke="#AEB8C5" stroke-width="1.2" opacity="0.82"/>
  <g transform="translate(896.00 130.00) scale(0.3906)">
<path d="M83 126 H172 M128 78 V178 M93 93 L164 163 M164 93 L93 163" stroke="#AEB8C5" stroke-width="5" opacity="0.72" stroke-linecap="round" stroke-linejoin="round" vector-effect="non-scaling-stroke"/>
<circle cx="83" cy="126" r="18" fill="#FBFAF7" stroke="#178B63" stroke-width="7"/>
<circle cx="128" cy="78" r="18" fill="#FBFAF7" stroke="#B4832F" stroke-width="7"/>
<circle cx="172" cy="126" r="18" fill="#FBFAF7" stroke="#178B63" stroke-width="7"/>
<circle cx="128" cy="178" r="18" fill="#FBFAF7" stroke="#B4832F" stroke-width="7"/>
</g>
  <text x="946" y="292" font-family="Arial, Helvetica, sans-serif" font-size="15" font-weight="700" fill="#17212B" text-anchor="middle" letter-spacing="0">Program</text>
  <text x="946" y="315" font-family="Arial, Helvetica, sans-serif" font-size="11.5" fill="#5D6978" text-anchor="middle" letter-spacing="0">interpretable layer</text>
  <path d="M1034 184 H1132" stroke="#AEB8C5" stroke-width="2.5" opacity="0.72" stroke-linecap="round" stroke-linejoin="round" vector-effect="non-scaling-stroke"/><path d="M1123 177 L1132 184 L1123 191" fill="none" stroke="#AEB8C5" stroke-width="2.5" opacity="0.72" stroke-linecap="round" stroke-linejoin="round" vector-effect="non-scaling-stroke"/>
  <rect x="1152" y="116" width="140" height="138" rx="20" fill="#FBFAF7" stroke="#AEB8C5" stroke-width="1.2" opacity="0.82"/>
  <g transform="translate(1172.00 130.00) scale(0.3906)">
<rect x="56" y="72" width="144" height="112" rx="14" fill="#FBFAF7" stroke="#B23A3A" stroke-width="8"/>
<path d="M128 78 V178" stroke="#B23A3A" stroke-width="8" opacity="0.72" stroke-linecap="round" stroke-linejoin="round" vector-effect="non-scaling-stroke"/>
<path d="M83 128 H112 M144 128 H173" stroke="#2D6F9F" stroke-width="7" stroke-linecap="round" stroke-linejoin="round" vector-effect="non-scaling-stroke"/>
<path d="M93 106 L112 128 L93 150 M163 106 L144 128 L163 150" fill="none" stroke="#2D6F9F" stroke-width="6" stroke-linecap="round" stroke-linejoin="round" vector-effect="non-scaling-stroke"/>
</g>
  <text x="1222" y="292" font-family="Arial, Helvetica, sans-serif" font-size="15" font-weight="700" fill="#17212B" text-anchor="middle" letter-spacing="0">Model task</text>
  <text x="1222" y="315" font-family="Arial, Helvetica, sans-serif" font-size="11.5" fill="#5D6978" text-anchor="middle" letter-spacing="0">leakage guard</text>
  <path d="M63 354 H1358" stroke="#AEB8C5" stroke-width="1.4" opacity="0.32"/>
  <text x="63" y="380" font-family="Arial, Helvetica, sans-serif" font-size="11.5" fill="#5D6978" text-anchor="start" letter-spacing="0">Replace schematic icons with source-derived proof plates when the slide makes an empirical claim.</text>
</svg>
