<svg xmlns="http://www.w3.org/2000/svg" width="1504" height="1540" viewBox="0 0 1504 1540">
<rect width="1504" height="1540" fill="#FBFAF6"/>
<text x="52" y="62" font-family="Arial, Helvetica, sans-serif" font-size="32" font-weight="700" fill="#17212B">SpaceBio-Bench biological symbol asset pack v0.1</text>
<text x="52" y="98" font-family="Arial, Helvetica, sans-serif" font-size="17" fill="#5D6978">Original editable SVG primitives for cell, molecular, tissue, organ, and assay visuals.</text>
<rect x="42" y="134" width="300" height="280" rx="0" fill="none" stroke="#AEB8C5" stroke-width="1" opacity="0.22"/>
<image href="svg/cell_nucleus.svg" x="90" y="150" width="190" height="190" preserveAspectRatio="xMidYMid meet"/>
<text x="52" y="375" font-family="Arial, Helvetica, sans-serif" font-size="18" font-weight="700" fill="#17212B">Cell + nucleus</text>
<text x="52" y="400" font-family="Arial, Helvetica, sans-serif" font-size="14" fill="#5D6978">cellular | cell_nucleus</text>
<rect x="392" y="134" width="300" height="280" rx="0" fill="none" stroke="#AEB8C5" stroke-width="1" opacity="0.22"/>
<image href="svg/mitochondrion.svg" x="440" y="150" width="190" height="190" preserveAspectRatio="xMidYMid meet"/>
<text x="402" y="375" font-family="Arial, Helvetica, sans-serif" font-size="18" font-weight="700" fill="#17212B">Mitochondrion</text>
<text x="402" y="400" font-family="Arial, Helvetica, sans-serif" font-size="14" fill="#5D6978">cellular | mitochondrion</text>
<rect x="742" y="134" width="300" height="280" rx="0" fill="none" stroke="#AEB8C5" stroke-width="1" opacity="0.22"/>
<image href="svg/organoid_sphere.svg" x="790" y="150" width="190" height="190" preserveAspectRatio="xMidYMid meet"/>
<text x="752" y="375" font-family="Arial, Helvetica, sans-serif" font-size="18" font-weight="700" fill="#17212B">Organoid sphere</text>
<text x="752" y="400" font-family="Arial, Helvetica, sans-serif" font-size="14" fill="#5D6978">cellular | organoid_sphere</text>
<rect x="1092" y="134" width="300" height="280" rx="0" fill="none" stroke="#AEB8C5" stroke-width="1" opacity="0.22"/>
<image href="svg/tissue_section.svg" x="1140" y="150" width="190" height="190" preserveAspectRatio="xMidYMid meet"/>
<text x="1102" y="375" font-family="Arial, Helvetica, sans-serif" font-size="18" font-weight="700" fill="#17212B">Tissue section</text>
<text x="1102" y="400" font-family="Arial, Helvetica, sans-serif" font-size="14" fill="#5D6978">tissue | tissue_section</text>
<rect x="42" y="464" width="300" height="280" rx="0" fill="none" stroke="#AEB8C5" stroke-width="1" opacity="0.22"/>
<image href="svg/epithelium_layer.svg" x="90" y="480" width="190" height="190" preserveAspectRatio="xMidYMid meet"/>
<text x="52" y="705" font-family="Arial, Helvetica, sans-serif" font-size="18" font-weight="700" fill="#17212B">Epithelial layer</text>
<text x="52" y="730" font-family="Arial, Helvetica, sans-serif" font-size="14" fill="#5D6978">tissue | epithelium_layer</text>
<rect x="392" y="464" width="300" height="280" rx="0" fill="none" stroke="#AEB8C5" stroke-width="1" opacity="0.22"/>
<image href="svg/vascular_slice.svg" x="440" y="480" width="190" height="190" preserveAspectRatio="xMidYMid meet"/>
<text x="402" y="705" font-family="Arial, Helvetica, sans-serif" font-size="18" font-weight="700" fill="#17212B">Vascular slice</text>
<text x="402" y="730" font-family="Arial, Helvetica, sans-serif" font-size="14" fill="#5D6978">tissue | vascular_slice</text>
<rect x="742" y="464" width="300" height="280" rx="0" fill="none" stroke="#AEB8C5" stroke-width="1" opacity="0.22"/>
<image href="svg/dna_helix.svg" x="790" y="480" width="190" height="190" preserveAspectRatio="xMidYMid meet"/>
<text x="752" y="705" font-family="Arial, Helvetica, sans-serif" font-size="18" font-weight="700" fill="#17212B">DNA helix</text>
<text x="752" y="730" font-family="Arial, Helvetica, sans-serif" font-size="14" fill="#5D6978">molecular | dna_helix</text>
<rect x="1092" y="464" width="300" height="280" rx="0" fill="none" stroke="#AEB8C5" stroke-width="1" opacity="0.22"/>
<image href="svg/rna_strand.svg" x="1140" y="480" width="190" height="190" preserveAspectRatio="xMidYMid meet"/>
<text x="1102" y="705" font-family="Arial, Helvetica, sans-serif" font-size="18" font-weight="700" fill="#17212B">RNA strand</text>
<text x="1102" y="730" font-family="Arial, Helvetica, sans-serif" font-size="14" fill="#5D6978">molecular | rna_strand</text>
<rect x="42" y="794" width="300" height="280" rx="0" fill="none" stroke="#AEB8C5" stroke-width="1" opacity="0.22"/>
<image href="svg/protein_complex.svg" x="90" y="810" width="190" height="190" preserveAspectRatio="xMidYMid meet"/>
<text x="52" y="1035" font-family="Arial, Helvetica, sans-serif" font-size="18" font-weight="700" fill="#17212B">Protein complex</text>
<text x="52" y="1060" font-family="Arial, Helvetica, sans-serif" font-size="14" fill="#5D6978">molecular | protein_complex</text>
<rect x="392" y="794" width="300" height="280" rx="0" fill="none" stroke="#AEB8C5" stroke-width="1" opacity="0.22"/>
<image href="svg/pathway_nodes.svg" x="440" y="810" width="190" height="190" preserveAspectRatio="xMidYMid meet"/>
<text x="402" y="1035" font-family="Arial, Helvetica, sans-serif" font-size="18" font-weight="700" fill="#17212B">Pathway nodes</text>
<text x="402" y="1060" font-family="Arial, Helvetica, sans-serif" font-size="14" fill="#5D6978">molecular | pathway_nodes</text>
<rect x="742" y="794" width="300" height="280" rx="0" fill="none" stroke="#AEB8C5" stroke-width="1" opacity="0.22"/>
<image href="svg/brain_outline.svg" x="790" y="810" width="190" height="190" preserveAspectRatio="xMidYMid meet"/>
<text x="752" y="1035" font-family="Arial, Helvetica, sans-serif" font-size="18" font-weight="700" fill="#17212B">Brain</text>
<text x="752" y="1060" font-family="Arial, Helvetica, sans-serif" font-size="14" fill="#5D6978">organ | brain_outline</text>
<rect x="1092" y="794" width="300" height="280" rx="0" fill="none" stroke="#AEB8C5" stroke-width="1" opacity="0.22"/>
<image href="svg/lung_outline.svg" x="1140" y="810" width="190" height="190" preserveAspectRatio="xMidYMid meet"/>
<text x="1102" y="1035" font-family="Arial, Helvetica, sans-serif" font-size="18" font-weight="700" fill="#17212B">Lung</text>
<text x="1102" y="1060" font-family="Arial, Helvetica, sans-serif" font-size="14" fill="#5D6978">organ | lung_outline</text>
<rect x="42" y="1124" width="300" height="280" rx="0" fill="none" stroke="#AEB8C5" stroke-width="1" opacity="0.22"/>
<image href="svg/kidney_outline.svg" x="90" y="1140" width="190" height="190" preserveAspectRatio="xMidYMid meet"/>
<text x="52" y="1365" font-family="Arial, Helvetica, sans-serif" font-size="18" font-weight="700" fill="#17212B">Kidney</text>
<text x="52" y="1390" font-family="Arial, Helvetica, sans-serif" font-size="14" fill="#5D6978">organ | kidney_outline</text>
<rect x="392" y="1124" width="300" height="280" rx="0" fill="none" stroke="#AEB8C5" stroke-width="1" opacity="0.22"/>
<image href="svg/liver_lobule.svg" x="440" y="1140" width="190" height="190" preserveAspectRatio="xMidYMid meet"/>
<text x="402" y="1365" font-family="Arial, Helvetica, sans-serif" font-size="18" font-weight="700" fill="#17212B">Liver lobule</text>
<text x="402" y="1390" font-family="Arial, Helvetica, sans-serif" font-size="14" fill="#5D6978">organ | liver_lobule</text>
<rect x="742" y="1124" width="300" height="280" rx="0" fill="none" stroke="#AEB8C5" stroke-width="1" opacity="0.22"/>
<image href="svg/sample_tube.svg" x="790" y="1140" width="190" height="190" preserveAspectRatio="xMidYMid meet"/>
<text x="752" y="1365" font-family="Arial, Helvetica, sans-serif" font-size="18" font-weight="700" fill="#17212B">Sample tube</text>
<text x="752" y="1390" font-family="Arial, Helvetica, sans-serif" font-size="14" fill="#5D6978">assay | sample_tube</text>
<rect x="1092" y="1124" width="300" height="280" rx="0" fill="none" stroke="#AEB8C5" stroke-width="1" opacity="0.22"/>
<image href="svg/expression_matrix.svg" x="1140" y="1140" width="190" height="190" preserveAspectRatio="xMidYMid meet"/>
<text x="1102" y="1365" font-family="Arial, Helvetica, sans-serif" font-size="18" font-weight="700" fill="#17212B">Expression matrix</text>
<text x="1102" y="1390" font-family="Arial, Helvetica, sans-serif" font-size="14" fill="#5D6978">assay | expression_matrix</text>
</svg>
