<svg xmlns="http://www.w3.org/2000/svg" width="960" height="640" viewBox="0 0 960 640" role="img" aria-label="Protein complex field">
  <metadata>SpaceBio-Bench original premium biological motif asset v0.2; motif_id=protein_complex_field; category=molecular; license=repository MIT license.</metadata>

  <defs>
    <filter id="soft_shadow" x="-20%" y="-20%" width="140%" height="140%">
      <feDropShadow dx="12" dy="16" stdDeviation="14" flood-color="#9C9487" flood-opacity="0.16"/>
    </filter>
    <radialGradient id="bio_glow" cx="46%" cy="42%" r="64%">
      <stop offset="0%" stop-color="#A36F13" stop-opacity="0.18"/>
      <stop offset="58%" stop-color="#15815E" stop-opacity="0.08"/>
      <stop offset="100%" stop-color="#FBFAF6" stop-opacity="0"/>
    </radialGradient>
    <linearGradient id="surface_fade" x1="0%" y1="0%" x2="100%" y2="100%">
      <stop offset="0%" stop-color="#FBFAF6" stop-opacity="0.78"/>
      <stop offset="100%" stop-color="#FBFAF6" stop-opacity="0.16"/>
    </linearGradient>
  </defs>
  <rect width="960" height="640" fill="none"/>
  <ellipse cx="482" cy="322" rx="356" ry="218" fill="url(#bio_glow)" opacity="0.92"/>
  <path d="M104 318 H856" stroke="#AEB8C5" stroke-width="1.8" opacity="0.18"/>
  <path d="M188 168 V510 M480 114 V546 M774 178 V498" stroke="#AEB8C5" stroke-width="1.4" opacity="0.12"/>
  <path d="M154 426 C305 358, 607 356, 812 432" fill="none" stroke="#A36F13" stroke-width="2.0" opacity="0.12" stroke-linecap="round"/>
  <path d="M158 230 C330 292, 620 290, 800 218" fill="none" stroke="#15815E" stroke-width="1.8" opacity="0.10" stroke-linecap="round"/>
  <g filter="url(#soft_shadow)">
  <circle cx="390" cy="286" r="70" fill="#A36F13" opacity="0.68"/>
  <circle cx="496" cy="260" r="60" fill="#15815E" opacity="0.56"/>
  <circle cx="486" cy="372" r="78" fill="#A36F13" opacity="0.40"/>
  <circle cx="598" cy="352" r="52" fill="#15815E" opacity="0.48"/>
  <circle cx="610" cy="250" r="38" fill="#A36F13" opacity="0.36"/>
  <path d="M330 210 C430 120, 642 150, 702 296" fill="none" stroke="#17212B" stroke-width="6" opacity="0.20" stroke-linecap="round" stroke-linejoin="round"/>
  </g>
</svg>
