<svg xmlns="http://www.w3.org/2000/svg" width="3840" height="2160" viewBox="0 0 3840 2160">
<rect width="3840" height="2160" fill="#FBFAF6"/>
<rect x="0" y="0" width="3840" height="2160" fill="#AEB8C5" opacity="0.035"/>
<text x="180" y="190" font-family="Arial, Helvetica, sans-serif" font-size="82" font-weight="700" fill="#17212B">Biological motif usage test</text>
<text x="180" y="265" font-family="Arial, Helvetica, sans-serif" font-size="34" fill="#5D6978">Full-canvas Z-stack check: biological specificity without card-box decoration.</text>
<path d="M180 396 H3660 M180 1090 H3660 M1920 396 V1900" stroke="#AEB8C5" stroke-width="2" opacity="0.28"/>
<path d="M180 1900 H3660" stroke="#AEB8C5" stroke-width="2" opacity="0.22"/>
<text x="230" y="465" font-family="Arial, Helvetica, sans-serif" font-size="42" font-weight="700" fill="#17212B">Source context becomes a task</text>
<text x="230" y="515" font-family="Arial, Helvetica, sans-serif" font-size="24" fill="#5D6978">sample, RNA signal, expression matrix</text>
<path d="M230 561 H1650" stroke="#AEB8C5" stroke-width="2" opacity="0.22"/>
<image href="svg/sample_to_matrix_assay.svg" x="260" y="600" width="420" height="280" preserveAspectRatio="xMidYMid meet"/>
<image href="svg/rna_expression_trace.svg" x="715" y="610" width="420" height="280" preserveAspectRatio="xMidYMid meet"/>
<image href="svg/single_cell_droplet_field.svg" x="1170" y="593" width="420" height="280" preserveAspectRatio="xMidYMid meet"/>
<path d="M350 965 C750 1025, 1190 1025, 1550 965" stroke="#AEB8C5" stroke-width="3" opacity="0.25" fill="none"/>
<text x="2060" y="465" font-family="Arial, Helvetica, sans-serif" font-size="42" font-weight="700" fill="#17212B">Molecular features become biology</text>
<text x="2060" y="515" font-family="Arial, Helvetica, sans-serif" font-size="24" fill="#5D6978">RNA trace, pathway program, protein context</text>
<path d="M2060 561 H3480" stroke="#AEB8C5" stroke-width="2" opacity="0.22"/>
<image href="svg/rna_expression_trace.svg" x="2090" y="600" width="420" height="280" preserveAspectRatio="xMidYMid meet"/>
<image href="svg/pathway_program_field.svg" x="2545" y="610" width="420" height="280" preserveAspectRatio="xMidYMid meet"/>
<image href="svg/protein_complex_field.svg" x="3000" y="593" width="420" height="280" preserveAspectRatio="xMidYMid meet"/>
<path d="M2180 965 C2580 1025, 3020 1025, 3380 965" stroke="#AEB8C5" stroke-width="3" opacity="0.25" fill="none"/>
<text x="230" y="1160" font-family="Arial, Helvetica, sans-serif" font-size="42" font-weight="700" fill="#17212B">Organoid and neural extension</text>
<text x="230" y="1210" font-family="Arial, Helvetica, sans-serif" font-size="24" fill="#5D6978">3D culture marker plus neural context</text>
<path d="M230 1256 H1650" stroke="#AEB8C5" stroke-width="2" opacity="0.22"/>
<image href="svg/organoid_spheroid_field.svg" x="260" y="1295" width="420" height="280" preserveAspectRatio="xMidYMid meet"/>
<image href="svg/brain_neural_context.svg" x="715" y="1305" width="420" height="280" preserveAspectRatio="xMidYMid meet"/>
<image href="svg/single_cell_droplet_field.svg" x="1170" y="1288" width="420" height="280" preserveAspectRatio="xMidYMid meet"/>
<path d="M350 1660 C750 1720, 1190 1720, 1550 1660" stroke="#AEB8C5" stroke-width="3" opacity="0.25" fill="none"/>
<text x="2060" y="1160" font-family="Arial, Helvetica, sans-serif" font-size="42" font-weight="700" fill="#17212B">Tissue and organ context</text>
<text x="2060" y="1210" font-family="Arial, Helvetica, sans-serif" font-size="24" fill="#5D6978">tissue section, kidney, liver, spatial spots</text>
<path d="M2060 1256 H3480" stroke="#AEB8C5" stroke-width="2" opacity="0.22"/>
<image href="svg/tissue_contour_section.svg" x="2060" y="1300" width="350" height="234" preserveAspectRatio="xMidYMid meet"/>
<image href="svg/kidney_tubule_context.svg" x="2410" y="1300" width="350" height="234" preserveAspectRatio="xMidYMid meet"/>
<image href="svg/liver_lobule_context.svg" x="2760" y="1300" width="350" height="234" preserveAspectRatio="xMidYMid meet"/>
<image href="svg/spatial_spot_tissue_field.svg" x="3110" y="1300" width="350" height="234" preserveAspectRatio="xMidYMid meet"/>
<path d="M2180 1660 C2580 1720, 3020 1720, 3380 1660" stroke="#AEB8C5" stroke-width="3" opacity="0.25" fill="none"/>
<text x="180" y="2030" font-family="Arial, Helvetica, sans-serif" font-size="24" fill="#5D6978">QA verdict target: motifs should behave as restrained biological context, not as decorative clip-art or figure replacements.</text>
</svg>
